<svg width="69" height="16" viewBox="0 0 69 16" fill="none" xmlns="http://www.w3.org/2000/svg">
<path fill-rule="evenodd" clip-rule="evenodd" d="M8.5 16C12.9183 16 16.5 12.4183 16.5 8C16.5 3.58172 12.9183 0 8.5 0C4.08172 0 0.5 3.58172 0.5 8C0.5 12.4183 4.08172 16 8.5 16Z" fill="#EFEFEF"/>
<path fill-rule="evenodd" clip-rule="evenodd" d="M34.5 16C38.9183 16 42.5 12.4183 42.5 8C42.5 3.58172 38.9183 0 34.5 0C30.0817 0 26.5 3.58172 26.5 8C26.5 12.4183 30.0817 16 34.5 16Z" fill="#FF9900"/>
<path fill-rule="evenodd" clip-rule="evenodd" d="M60.5 16C64.9183 16 68.5 12.4183 68.5 8C68.5 3.58172 64.9183 0 60.5 0C56.0817 0 52.5 3.58172 52.5 8C52.5 12.4183 56.0817 16 60.5 16Z" fill="#EFEFEF"/>
</svg>
