<svg width="520" height="574" viewBox="0 0 520 574" fill="none" xmlns="http://www.w3.org/2000/svg">
<mask id="mask0" mask-type="alpha" maskUnits="userSpaceOnUse" x="0" y="62" width="520" height="512">
<path fill-rule="evenodd" clip-rule="evenodd" d="M0.0012207 62.3014H519.785V573.31H0.0012207V62.3014Z" fill="white"/>
</mask>
<g mask="url(#mask0)">
<path fill-rule="evenodd" clip-rule="evenodd" d="M456.451 550.18C443.001 558.28 427.351 564.13 410.101 567.93C398.651 570.43 386.451 572.08 373.751 572.78C327.051 575.63 273.351 566.88 221.601 549.38C210.001 545.48 198.501 541.13 187.201 536.33C103.051 500.93 29.9011 443.13 9.40105 376.13C-28.049 253.83 52.3511 165.88 145.451 85.18C183.201 52.43 232.401 57.13 283.301 84.78C295.201 91.23 307.151 98.93 319.101 107.68C363.951 140.63 408.351 188.58 445.851 241.88C519.451 346.53 562.051 486.73 456.451 550.18Z" fill="#FDE6D6"/>
</g>
<path fill-rule="evenodd" clip-rule="evenodd" d="M417.217 155.935C408.532 138.425 405.352 116.265 422.767 109.13C442.217 101.165 473.207 114.045 482.227 143.27C487.992 161.945 486.012 188.015 470.082 198.035C456.452 206.615 427.872 177.41 417.217 155.935Z" fill="#E8E5EA"/>
<path fill-rule="evenodd" clip-rule="evenodd" d="M141.485 66.8425C141.47 66.8425 141.455 66.8425 141.44 66.8425C138.095 66.6125 134.74 66.4875 131.48 66.4675C131.13 66.4675 130.855 66.1875 130.855 65.8425C130.86 65.4975 131.135 65.2175 131.48 65.2175H131.485C134.775 65.2375 138.155 65.3625 141.53 65.5925C141.875 65.6175 142.13 65.9175 142.11 66.2625C142.085 66.5925 141.81 66.8425 141.485 66.8425ZM111.515 67.8025C111.21 67.8025 110.94 67.5775 110.895 67.2675C110.845 66.9275 111.08 66.6075 111.425 66.5575C114.655 66.0875 118.025 65.7375 121.43 65.5125C121.82 65.4475 122.075 65.7525 122.095 66.0975C122.12 66.4375 121.86 66.7375 121.515 66.7575C118.14 66.9825 114.805 67.3325 111.605 67.7925C111.575 67.7975 111.545 67.8025 111.515 67.8025ZM161.355 69.3175C161.315 69.3175 161.28 69.3125 161.245 69.3075C157.96 68.7175 154.64 68.2175 151.375 67.8075C151.03 67.7625 150.785 67.4525 150.83 67.1075C150.875 66.7675 151.16 66.5375 151.53 66.5675C154.82 66.9775 158.16 67.4875 161.465 68.0775C161.8 68.1375 162.03 68.4625 161.97 68.8025C161.915 69.1025 161.65 69.3175 161.355 69.3175ZM92.0251 72.3175C91.7601 72.3175 91.5151 72.1475 91.4301 71.8775C91.3251 71.5475 91.5101 71.1975 91.8401 71.0975C95.0051 70.0975 98.2651 69.2075 101.535 68.4425C101.865 68.3625 102.21 68.5725 102.285 68.9075C102.365 69.2425 102.155 69.5775 101.82 69.6575C98.5801 70.4175 95.3451 71.3025 92.2151 72.2875C92.1501 72.3075 92.0901 72.3175 92.0251 72.3175ZM180.895 73.6975C180.84 73.6975 180.785 73.6925 180.73 73.6775C177.48 72.7975 174.22 71.9925 171.035 71.2775C170.695 71.2025 170.485 70.8675 170.56 70.5275C170.635 70.1925 170.95 69.9775 171.305 70.0575C174.51 70.7775 177.79 71.5875 181.06 72.4675C181.39 72.5625 181.59 72.9025 181.495 73.2375C181.42 73.5125 181.17 73.6975 180.895 73.6975ZM200.03 79.6475C199.96 79.6475 199.89 79.6375 199.82 79.6125C196.69 78.5075 193.495 77.4525 190.335 76.4675C190.005 76.3625 189.82 76.0125 189.925 75.6875C190.025 75.3575 190.38 75.1675 190.705 75.2775C193.88 76.2625 197.09 77.3275 200.235 78.4325C200.56 78.5475 200.735 78.9075 200.62 79.2325C200.53 79.4875 200.29 79.6475 200.03 79.6475ZM73.5101 79.8425C73.2851 79.8425 73.0651 79.7175 72.9551 79.4975C72.8001 79.1925 72.9201 78.8175 73.2301 78.6575C76.1751 77.1575 79.2551 75.7525 82.3801 74.4875C82.6901 74.3475 83.0601 74.5125 83.1901 74.8325C83.3201 75.1525 83.1651 75.5175 82.8451 75.6475C79.7551 76.8975 76.7101 78.2875 73.7951 79.7725C73.7051 79.8175 73.6051 79.8425 73.5101 79.8425ZM218.71 86.8925C218.63 86.8925 218.55 86.8775 218.465 86.8425C215.405 85.5425 212.29 84.2725 209.2 83.0775C208.88 82.9525 208.72 82.5875 208.845 82.2675C208.975 81.9475 209.335 81.7975 209.655 81.9125C212.755 83.1125 215.885 84.3875 218.955 85.6925C219.275 85.8275 219.42 86.1925 219.29 86.5125C219.185 86.7475 218.955 86.8925 218.71 86.8925ZM56.6101 90.4975C56.4201 90.4975 56.2401 90.4175 56.1151 90.2575C55.9051 89.9825 55.9551 89.5875 56.2301 89.3775C58.8551 87.3575 61.6301 85.4175 64.4751 83.6225C64.7701 83.4425 65.1551 83.5275 65.3401 83.8175C65.5251 84.1125 65.4351 84.4975 65.1451 84.6775C62.3301 86.4575 59.5901 88.3725 56.9901 90.3725C56.8801 90.4575 56.7451 90.4975 56.6101 90.4975ZM236.92 95.2525C236.83 95.2525 236.735 95.2325 236.645 95.1875C233.635 93.7025 230.6 92.2575 227.615 90.8875C227.305 90.7425 227.165 90.3675 227.31 90.0575C227.455 89.7425 227.825 89.6025 228.14 89.7475C231.13 91.1225 234.18 92.5775 237.2 94.0625C237.51 94.2175 237.635 94.5925 237.485 94.9025C237.375 95.1225 237.15 95.2525 236.92 95.2525ZM42.0051 104.133C41.8551 104.133 41.7101 104.083 41.5901 103.973C41.3301 103.748 41.3101 103.353 41.5401 103.093C43.7551 100.598 46.1151 98.1725 48.5601 95.8925C48.8101 95.6525 49.2051 95.6675 49.4401 95.9175C49.6801 96.1725 49.6651 96.5675 49.4101 96.8025C47.0001 99.0625 44.6651 101.458 42.4701 103.923C42.3501 104.063 42.1801 104.133 42.0051 104.133ZM254.655 104.583C254.55 104.583 254.45 104.558 254.35 104.503C251.445 102.878 248.485 101.273 245.56 99.7325C245.255 99.5725 245.135 99.1925 245.295 98.8875C245.46 98.5825 245.84 98.4625 246.14 98.6225C249.08 100.173 252.045 101.783 254.96 103.413C255.26 103.583 255.37 103.963 255.2 104.263C255.085 104.468 254.875 104.583 254.655 104.583ZM271.905 114.793C271.795 114.793 271.68 114.763 271.575 114.698C268.725 112.918 265.85 111.173 263.03 109.503C262.73 109.328 262.63 108.943 262.81 108.648C262.98 108.343 263.365 108.248 263.665 108.428C266.49 110.098 269.38 111.853 272.24 113.638C272.53 113.823 272.62 114.208 272.435 114.503C272.32 114.688 272.115 114.793 271.905 114.793ZM30.1201 120.213C30.0051 120.213 29.8951 120.183 29.7901 120.118C29.5001 119.938 29.4051 119.553 29.5851 119.258C31.3451 116.393 33.2401 113.583 35.2051 110.913C35.4151 110.638 35.8051 110.583 36.0801 110.783C36.3601 110.988 36.4151 111.378 36.2101 111.653C34.2651 114.298 32.3951 117.073 30.6501 119.913C30.5351 120.108 30.3301 120.213 30.1201 120.213ZM288.655 125.803C288.53 125.803 288.405 125.763 288.3 125.693C285.53 123.778 282.735 121.898 280 120.098C279.71 119.908 279.63 119.523 279.82 119.233C280.01 118.953 280.395 118.868 280.685 119.053C283.43 120.858 286.23 122.743 289.005 124.658C289.295 124.858 289.365 125.248 289.17 125.528C289.045 125.703 288.85 125.803 288.655 125.803ZM304.86 137.528C304.73 137.528 304.6 137.488 304.485 137.403C301.805 135.378 299.105 133.373 296.455 131.453C296.175 131.248 296.115 130.858 296.315 130.583C296.52 130.298 296.91 130.238 297.19 130.443C299.845 132.363 302.555 134.373 305.24 136.408C305.515 136.613 305.565 137.008 305.36 137.283C305.235 137.443 305.05 137.528 304.86 137.528ZM21.0151 138.023C20.9351 138.023 20.8551 138.008 20.7751 137.978C20.4551 137.843 20.3051 137.473 20.4401 137.158C21.7501 134.038 23.1751 130.968 24.6701 128.038C24.8251 127.728 25.2001 127.603 25.5101 127.763C25.8201 127.918 25.9401 128.298 25.7851 128.603C24.3001 131.513 22.8901 134.553 21.5901 137.643C21.4901 137.883 21.2601 138.023 21.0151 138.023ZM320.565 149.988C320.425 149.988 320.285 149.943 320.165 149.848C317.645 147.753 315.03 145.628 312.39 143.533C312.12 143.318 312.075 142.928 312.29 142.658C312.51 142.388 312.9 142.348 313.165 142.553C315.815 144.653 318.44 146.783 320.965 148.883C321.23 149.103 321.27 149.498 321.05 149.763C320.925 149.913 320.745 149.988 320.565 149.988ZM14.4801 156.938C14.4201 156.938 14.3651 156.933 14.3101 156.918C13.9801 156.823 13.7801 156.478 13.8751 156.143C14.7851 152.888 15.7851 149.658 16.8551 146.548C16.9701 146.223 17.3301 146.038 17.6501 146.158C17.9751 146.273 18.1501 146.628 18.0401 146.953C16.9751 150.043 15.9801 153.248 15.0801 156.483C15.0051 156.758 14.7501 156.938 14.4801 156.938ZM335.735 163.168C335.58 163.168 335.435 163.113 335.315 163.003C332.85 160.763 330.325 158.518 327.81 156.333C327.55 156.113 327.525 155.713 327.75 155.453C327.975 155.188 328.37 155.173 328.63 155.393C331.155 157.583 333.68 159.833 336.155 162.078C336.41 162.313 336.43 162.708 336.195 162.963C336.07 163.098 335.905 163.168 335.735 163.168ZM10.1701 176.493C10.1351 176.493 10.1001 176.488 10.0651 176.483C9.72507 176.428 9.49507 176.103 9.55507 175.763C10.1101 172.438 10.7501 169.123 11.4551 165.903C11.5301 165.568 11.8601 165.358 12.2001 165.423C12.5351 165.498 12.7501 165.833 12.6751 166.168C11.9751 169.368 11.3401 172.668 10.7851 175.968C10.7351 176.273 10.4701 176.493 10.1701 176.493ZM350.25 176.988C350.09 176.988 349.93 176.928 349.81 176.803C347.445 174.448 345.03 172.098 342.64 169.823C342.39 169.583 342.38 169.188 342.62 168.938C342.855 168.693 343.255 168.678 343.5 168.918C345.9 171.203 348.32 173.558 350.69 175.918C350.935 176.163 350.935 176.558 350.69 176.803C350.57 176.928 350.41 176.988 350.25 176.988ZM364.09 191.478C363.92 191.478 363.755 191.408 363.63 191.273C361.385 188.808 359.09 186.343 356.805 183.953C356.57 183.708 356.58 183.308 356.825 183.073C357.08 182.838 357.47 182.838 357.71 183.093C360.005 185.488 362.305 187.958 364.555 190.433C364.79 190.688 364.77 191.083 364.51 191.313C364.395 191.423 364.245 191.478 364.09 191.478ZM7.75507 196.368C7.74007 196.368 7.72507 196.368 7.70507 196.368C7.36007 196.338 7.10507 196.038 7.13007 195.698C7.39507 192.328 7.73007 188.963 8.12507 185.703C8.16507 185.363 8.44507 185.133 8.82007 185.158C9.16507 185.198 9.40507 185.508 9.36507 185.853C8.97507 189.098 8.64007 192.443 8.37507 195.793C8.35507 196.118 8.08007 196.368 7.75507 196.368ZM377.19 206.643C377.01 206.643 376.83 206.563 376.705 206.413C374.625 203.873 372.46 201.298 370.265 198.758C370.04 198.498 370.07 198.103 370.335 197.878C370.595 197.648 370.99 197.683 371.215 197.943C373.415 200.488 375.59 203.073 377.675 205.623C377.895 205.888 377.855 206.283 377.585 206.503C377.47 206.598 377.33 206.643 377.19 206.643ZM6.94507 216.383C6.60007 216.378 6.32007 216.098 6.32007 215.753C6.33507 212.398 6.41007 209.023 6.54007 205.718C6.55507 205.378 6.82007 205.093 7.19007 205.118C7.53507 205.133 7.80507 205.423 7.79007 205.768C7.66007 209.058 7.58507 212.418 7.57007 215.758C7.57007 216.103 7.29007 216.383 6.94507 216.383ZM389.445 222.498C389.25 222.498 389.06 222.413 388.94 222.243C386.975 219.548 384.955 216.853 382.935 214.243C382.725 213.968 382.775 213.578 383.05 213.363C383.32 213.153 383.71 213.198 383.925 213.478C385.955 216.098 387.98 218.803 389.95 221.508C390.15 221.788 390.09 222.178 389.815 222.378C389.7 222.463 389.57 222.498 389.445 222.498ZM7.51007 236.413C7.18007 236.413 6.90507 236.153 6.88507 235.823C6.68507 232.433 6.53507 229.053 6.44507 225.793C6.43507 225.448 6.70507 225.158 7.05007 225.148H7.07007C7.40507 225.148 7.68507 225.418 7.69507 225.758C7.78507 229.008 7.93507 232.368 8.13507 235.748C8.15507 236.093 7.89007 236.388 7.54507 236.413H7.51007ZM400.72 239.058C400.515 239.058 400.31 238.958 400.19 238.768C398.43 235.993 396.58 233.183 394.695 230.418C394.505 230.133 394.575 229.743 394.86 229.548C395.14 229.353 395.535 229.428 395.73 229.713C397.62 232.488 399.48 235.313 401.245 238.098C401.43 238.393 401.345 238.778 401.055 238.963C400.95 239.028 400.835 239.058 400.72 239.058ZM410.84 256.348C410.62 256.348 410.405 256.228 410.29 256.018C408.73 253.118 407.085 250.188 405.395 247.303C405.225 247.008 405.325 246.628 405.62 246.448C405.91 246.268 406.3 246.373 406.475 246.673C408.17 249.568 409.825 252.513 411.39 255.428C411.555 255.728 411.44 256.113 411.135 256.273C411.045 256.323 410.94 256.348 410.84 256.348ZM9.27507 256.373C8.96007 256.373 8.69007 256.138 8.65507 255.818C8.26007 252.453 7.92007 249.088 7.63007 245.838C7.60007 245.493 7.85507 245.188 8.19507 245.158C8.60007 245.123 8.84507 245.383 8.87507 245.723C9.16007 248.968 9.50507 252.318 9.89507 255.678C9.93507 256.018 9.69007 256.328 9.34507 256.368C9.32007 256.373 9.30007 256.373 9.27507 256.373ZM419.585 274.363C419.345 274.363 419.115 274.223 419.01 273.988C417.69 270.943 416.285 267.888 414.84 264.913C414.69 264.603 414.82 264.228 415.13 264.078C415.435 263.923 415.81 264.053 415.965 264.363C417.42 267.363 418.83 270.428 420.16 273.488C420.295 273.808 420.15 274.173 419.835 274.313C419.755 274.343 419.67 274.363 419.585 274.363ZM12.0901 276.213C11.7901 276.213 11.5251 275.993 11.4751 275.688C10.9101 272.343 10.3951 269.008 9.94007 265.773C9.89007 265.433 10.1301 265.113 10.4701 265.068C10.7901 265.013 11.1251 265.253 11.1751 265.598C11.6301 268.823 12.1451 272.148 12.7051 275.483C12.7651 275.823 12.5351 276.143 12.1951 276.203C12.1601 276.208 12.1251 276.213 12.0901 276.213ZM426.645 293.093C426.38 293.093 426.135 292.928 426.05 292.663C425.055 289.553 423.95 286.388 422.76 283.243C422.64 282.918 422.8 282.558 423.125 282.438C423.445 282.298 423.805 282.473 423.93 282.798C425.13 285.963 426.24 289.153 427.24 292.278C427.345 292.608 427.165 292.963 426.835 293.068C426.77 293.088 426.705 293.093 426.645 293.093ZM15.8651 295.888C15.5751 295.888 15.3201 295.688 15.2551 295.393C14.5551 292.153 13.8801 288.843 13.2551 285.563C13.1851 285.223 13.4101 284.898 13.7501 284.833C14.0801 284.743 14.4151 284.988 14.4801 285.328C15.1051 288.598 15.7751 291.898 16.4751 295.133C16.5501 295.468 16.3351 295.803 15.9951 295.873C15.9551 295.883 15.9101 295.888 15.8651 295.888ZM431.645 312.468C431.355 312.468 431.09 312.258 431.035 311.958C430.415 308.773 429.675 305.503 428.83 302.238C428.745 301.903 428.945 301.563 429.28 301.478C429.605 301.393 429.95 301.593 430.04 301.928C430.89 305.213 431.64 308.508 432.26 311.723C432.325 312.058 432.105 312.388 431.765 312.453C431.725 312.463 431.685 312.468 431.645 312.468ZM20.5201 315.373C20.2401 315.373 19.9901 315.183 19.9151 314.903C19.0701 311.673 18.2551 308.428 17.4801 305.178C17.4001 304.838 17.6051 304.503 17.9401 304.423C18.2701 304.343 18.6151 304.548 18.6951 304.883C19.4751 308.128 20.2801 311.363 21.1251 314.588C21.2101 314.923 21.0151 315.263 20.6801 315.353C20.6251 315.363 20.5701 315.373 20.5201 315.373ZM434.12 332.308C433.79 332.308 433.515 332.048 433.495 331.713C433.325 328.448 433.03 325.108 432.61 321.793C432.565 321.453 432.81 321.138 433.15 321.098C433.525 321.068 433.805 321.298 433.85 321.638C434.27 324.983 434.575 328.353 434.745 331.648C434.765 331.993 434.5 332.288 434.155 332.308H434.12ZM26.1451 335.108C25.8801 335.108 25.6351 334.938 25.5501 334.668L25.4001 334.183C24.4251 331.008 23.4651 327.773 22.5601 324.573C22.4651 324.243 22.6551 323.898 22.9901 323.803C23.3351 323.713 23.6701 323.903 23.7601 324.233C24.6701 327.423 25.6251 330.653 26.6001 333.823L26.7401 334.298C26.8451 334.628 26.6601 334.973 26.3301 335.078C26.2701 335.098 26.2051 335.108 26.1451 335.108ZM433.795 352.308C433.78 352.308 433.77 352.308 433.755 352.308C433.41 352.283 433.15 351.983 433.175 351.638C433.405 348.368 433.565 345.018 433.64 341.678C433.645 341.333 433.89 341.083 434.28 341.068C434.62 341.073 434.895 341.358 434.89 341.708C434.815 345.068 434.655 348.438 434.42 351.728C434.4 352.058 434.12 352.308 433.795 352.308ZM32.3401 354.148C32.0851 354.148 31.8401 353.988 31.7501 353.728C30.6701 350.573 29.6101 347.403 28.5751 344.223C28.4701 343.898 28.6501 343.543 28.9801 343.438C29.3101 343.333 29.6601 343.513 29.7651 343.838C30.8001 347.008 31.8551 350.173 32.9351 353.323C33.0451 353.648 32.8701 354.003 32.5451 354.118C32.4751 354.138 32.4101 354.148 32.3401 354.148ZM431.34 372.158C431.305 372.158 431.27 372.153 431.23 372.148C430.89 372.083 430.665 371.758 430.725 371.423C431.3 368.203 431.8 364.888 432.215 361.563C432.255 361.218 432.585 360.973 432.91 361.018C433.255 361.063 433.495 361.373 433.455 361.718C433.04 365.068 432.535 368.403 431.955 371.638C431.9 371.943 431.64 372.158 431.34 372.158ZM39.1151 372.968C38.8651 372.968 38.6251 372.812 38.5351 372.562C37.3551 369.448 36.2001 366.318 35.0651 363.178C34.9451 362.853 35.1151 362.493 35.4401 362.373C35.7701 362.263 36.1201 362.428 36.2401 362.753C37.3701 365.888 38.5251 369.013 39.7001 372.118C39.8201 372.443 39.6601 372.803 39.3401 372.923C39.2651 372.953 39.1901 372.968 39.1151 372.968ZM46.5151 391.588C46.2701 391.588 46.0401 391.443 45.9401 391.203C44.6551 388.128 43.4001 385.033 42.1601 381.913C42.0301 381.593 42.1901 381.228 42.5101 381.103C42.8201 380.978 43.1901 381.128 43.3201 381.448C44.5551 384.563 45.8151 387.653 47.0901 390.723C47.2251 391.043 47.0751 391.408 46.7551 391.538C46.6751 391.573 46.5951 391.588 46.5151 391.588ZM426.695 391.603C426.64 391.603 426.58 391.598 426.515 391.578C426.185 391.478 426 391.128 426.1 390.798C427.05 387.638 427.925 384.398 428.69 381.178C428.775 380.843 429.095 380.638 429.445 380.713C429.78 380.798 429.99 381.133 429.91 381.468C429.135 384.713 428.255 387.973 427.295 391.158C427.215 391.428 426.965 391.603 426.695 391.603ZM54.5351 409.953C54.3001 409.953 54.0751 409.818 53.9701 409.588C52.5851 406.563 51.2151 403.508 49.8701 400.433C49.7351 400.118 49.8801 399.748 50.1951 399.608C50.5101 399.478 50.8801 399.613 51.0201 399.933C52.3601 403.003 53.7201 406.048 55.1051 409.068C55.2501 409.383 55.1101 409.753 54.8001 409.898C54.7151 409.938 54.6251 409.953 54.5351 409.953ZM419.785 410.368C419.7 410.368 419.615 410.353 419.53 410.313C419.215 410.178 419.075 409.808 419.21 409.493C420.54 406.473 421.79 403.363 422.94 400.248C423.06 399.928 423.415 399.758 423.745 399.878C424.065 399.998 424.23 400.358 424.11 400.683C422.955 403.823 421.69 406.953 420.355 409.993C420.25 410.228 420.025 410.368 419.785 410.368ZM63.2201 428.008C62.9901 428.008 62.7701 427.883 62.6601 427.668C61.1651 424.698 59.6851 421.698 58.2251 418.668C58.0751 418.358 58.2051 417.983 58.5201 417.833C58.8401 417.688 59.2051 417.813 59.3551 418.123C60.8101 421.143 62.2801 424.138 63.7751 427.103C63.9301 427.413 63.8101 427.788 63.5001 427.943C63.4101 427.988 63.3151 428.008 63.2201 428.008ZM410.645 428.168C410.535 428.168 410.425 428.143 410.325 428.083C410.025 427.903 409.93 427.523 410.105 427.228C411.8 424.363 413.425 421.423 414.93 418.483C415.09 418.173 415.46 418.053 415.77 418.213C416.08 418.373 416.2 418.748 416.045 419.053C414.525 422.013 412.89 424.978 411.18 427.863C411.065 428.058 410.855 428.168 410.645 428.168ZM399.485 444.768C399.355 444.768 399.22 444.728 399.105 444.643C398.835 444.438 398.78 444.043 398.985 443.768C400.99 441.118 402.94 438.393 404.78 435.658C404.975 435.373 405.36 435.293 405.65 435.488C405.935 435.683 406.01 436.073 405.815 436.358C403.965 439.113 402.005 441.858 399.985 444.523C399.86 444.683 399.675 444.768 399.485 444.768ZM72.6051 445.713C72.3851 445.713 72.1751 445.598 72.0601 445.393C70.4651 442.533 68.8551 439.568 67.2701 436.578C67.1101 436.273 67.2201 435.893 67.5251 435.733C67.8351 435.583 68.2101 435.688 68.3701 435.993C69.9551 438.973 71.5601 441.933 73.1501 444.783C73.3201 445.083 73.2101 445.468 72.9101 445.633C72.8151 445.688 72.7101 445.713 72.6051 445.713ZM386.595 460.058C386.445 460.058 386.29 460.003 386.17 459.888C385.92 459.658 385.905 459.258 386.14 459.008C388.42 456.563 390.65 454.048 392.765 451.543C392.99 451.288 393.385 451.248 393.645 451.468C393.91 451.693 393.945 452.088 393.72 452.353C391.59 454.873 389.35 457.398 387.055 459.863C386.93 459.993 386.765 460.058 386.595 460.058ZM82.7551 462.988C82.5501 462.988 82.3451 462.883 82.2251 462.693C80.4901 459.888 78.7451 456.998 77.0401 454.103C76.8701 453.803 76.9651 453.418 77.2651 453.243C77.5601 453.068 77.9451 453.173 78.1201 453.468C79.8201 456.358 81.5551 459.238 83.2901 462.033C83.4701 462.328 83.3801 462.713 83.0851 462.893C82.9851 462.958 82.8701 462.988 82.7551 462.988ZM372.29 474.053C372.115 474.053 371.945 473.983 371.82 473.843C371.59 473.588 371.615 473.193 371.87 472.963C374.38 470.713 376.83 468.423 379.165 466.143C379.41 465.903 379.81 465.913 380.045 466.153C380.29 466.403 380.285 466.798 380.035 467.038C377.69 469.328 375.225 471.633 372.705 473.893C372.585 473.998 372.435 474.053 372.29 474.053ZM93.7551 479.738C93.5551 479.738 93.3601 479.643 93.2401 479.468C91.3501 476.753 89.4601 473.953 87.6251 471.148C87.4301 470.863 87.5151 470.473 87.8051 470.283C88.0901 470.098 88.4751 470.178 88.6701 470.468C90.5001 473.263 92.3851 476.048 94.2651 478.753C94.4651 479.038 94.3951 479.428 94.1101 479.623C94.0001 479.698 93.8801 479.738 93.7551 479.738ZM356.86 486.818C356.67 486.818 356.485 486.733 356.365 486.573C356.155 486.298 356.205 485.908 356.48 485.698C359.135 483.658 361.77 481.568 364.3 479.478C364.565 479.253 364.955 479.293 365.175 479.558C365.395 479.828 365.36 480.218 365.095 480.438C362.55 482.543 359.91 484.643 357.24 486.688C357.125 486.778 356.99 486.818 356.86 486.818ZM105.69 495.823C105.51 495.823 105.325 495.743 105.2 495.588C103.18 493.033 101.125 490.353 99.0901 487.618C98.8851 487.343 98.9451 486.948 99.2201 486.743C99.5001 486.543 99.8901 486.598 100.1 486.873C102.12 489.598 104.165 492.268 106.18 494.808C106.395 495.078 106.35 495.473 106.08 495.688C105.965 495.778 105.83 495.823 105.69 495.823ZM340.575 498.473C340.375 498.473 340.18 498.373 340.055 498.193C339.865 497.908 339.94 497.518 340.23 497.328C343.01 495.463 345.775 493.548 348.45 491.638C348.725 491.433 349.12 491.503 349.32 491.783C349.52 492.063 349.46 492.458 349.18 492.658C346.495 494.573 343.72 496.493 340.925 498.368C340.82 498.438 340.695 498.473 340.575 498.473ZM323.64 509.163C323.425 509.163 323.22 509.053 323.1 508.858C322.925 508.563 323.02 508.178 323.32 507.998C326.23 506.263 329.1 504.508 331.845 502.773C332.14 502.598 332.525 502.678 332.71 502.968C332.89 503.263 332.805 503.648 332.515 503.833C329.755 505.568 326.88 507.333 323.96 509.073C323.86 509.133 323.75 509.163 323.64 509.163ZM118.7 511.053C118.535 511.053 118.365 510.983 118.245 510.853C116.02 508.448 113.775 505.918 111.575 503.343C111.355 503.083 111.38 502.683 111.645 502.463C111.91 502.243 112.305 502.268 112.525 502.533C114.715 505.098 116.95 507.608 119.16 510.003C119.395 510.258 119.38 510.653 119.125 510.888C119.005 510.998 118.855 511.053 118.7 511.053ZM306.205 519.033C305.98 519.033 305.765 518.913 305.655 518.708C305.49 518.403 305.605 518.023 305.905 517.858C308.855 516.268 311.775 514.658 314.665 513.023C314.965 512.853 315.345 512.958 315.52 513.258C315.685 513.558 315.58 513.938 315.28 514.113C312.385 515.748 309.455 517.363 306.5 518.958C306.405 519.008 306.305 519.033 306.205 519.033ZM132.94 525.133C132.79 525.133 132.64 525.078 132.525 524.973C130.07 522.773 127.61 520.453 125.22 518.078C124.97 517.833 124.97 517.438 125.215 517.193C125.455 516.948 125.85 516.948 126.095 517.188C128.475 519.553 130.92 521.853 133.36 524.043C133.615 524.273 133.635 524.668 133.405 524.928C133.28 525.063 133.11 525.133 132.94 525.133ZM288.405 528.218C288.175 528.218 287.95 528.093 287.845 527.873C287.69 527.563 287.82 527.183 288.125 527.033C291.125 525.543 294.105 524.043 297.06 522.518C297.36 522.363 297.735 522.483 297.9 522.788C298.055 523.093 297.94 523.473 297.63 523.633C294.67 525.158 291.69 526.663 288.68 528.153C288.59 528.198 288.495 528.218 288.405 528.218ZM270.32 536.853C270.085 536.853 269.86 536.718 269.755 536.488C269.61 536.178 269.745 535.803 270.06 535.663C273.095 534.258 276.12 532.838 279.12 531.408C279.425 531.268 279.81 531.393 279.955 531.703C280.105 532.013 279.97 532.388 279.66 532.538C276.65 533.973 273.625 535.388 270.58 536.793C270.5 536.833 270.41 536.853 270.32 536.853ZM148.575 537.628C148.455 537.628 148.33 537.588 148.22 537.513C145.545 535.633 142.84 533.603 140.185 531.473C139.915 531.258 139.87 530.863 140.085 530.593C140.31 530.328 140.7 530.283 140.965 530.498C143.6 532.608 146.28 534.628 148.935 536.488C149.22 536.688 149.29 537.078 149.09 537.363C148.97 537.533 148.775 537.628 148.575 537.628ZM252.08 545.028C251.84 545.028 251.61 544.888 251.505 544.653C251.37 544.338 251.515 543.968 251.83 543.828C254.89 542.493 257.94 541.148 260.97 539.788C261.285 539.648 261.655 539.788 261.795 540.103C261.935 540.418 261.795 540.788 261.485 540.928C258.445 542.288 255.395 543.638 252.33 544.973C252.25 545.008 252.165 545.028 252.08 545.028ZM165.755 547.873C165.66 547.873 165.565 547.853 165.475 547.808C162.54 546.363 159.57 544.748 156.645 542.993C156.35 542.818 156.255 542.433 156.43 542.138C156.605 541.843 156.99 541.743 157.29 541.923C160.185 543.653 163.125 545.258 166.03 546.688C166.34 546.843 166.465 547.213 166.315 547.523C166.205 547.748 165.98 547.873 165.755 547.873ZM233.615 552.783C233.36 552.783 233.12 552.623 233.03 552.368C232.91 552.043 233.08 551.683 233.405 551.568C234.855 551.043 236.34 550.463 237.82 549.838C239.425 549.158 241.035 548.478 242.64 547.793C242.955 547.663 243.325 547.803 243.46 548.118C243.595 548.438 243.45 548.808 243.135 548.938C241.525 549.628 239.915 550.313 238.305 550.993C236.805 551.623 235.3 552.213 233.83 552.743C233.76 552.768 233.685 552.783 233.615 552.783ZM184.43 554.938C184.38 554.938 184.325 554.928 184.275 554.918C181.1 554.078 177.88 553.038 174.7 551.828C174.375 551.708 174.21 551.343 174.335 551.023C174.46 550.698 174.82 550.538 175.14 550.663C178.285 551.853 181.465 552.883 184.59 553.708C184.925 553.798 185.125 554.138 185.035 554.468C184.96 554.753 184.71 554.938 184.43 554.938ZM214.16 557.318C213.84 557.318 213.57 557.078 213.535 556.758C213.5 556.413 213.75 556.108 214.09 556.068C217.355 555.723 220.65 555.163 223.88 554.403C224.23 554.318 224.555 554.538 224.63 554.868C224.715 555.203 224.505 555.543 224.17 555.618C220.885 556.393 217.54 556.958 214.225 557.313C214.2 557.318 214.18 557.318 214.16 557.318ZM204.16 557.748H204.15C200.835 557.683 197.465 557.403 194.125 556.923C193.785 556.873 193.55 556.558 193.6 556.218C193.645 555.873 193.93 555.628 194.305 555.688C197.59 556.163 200.91 556.433 204.175 556.498C204.515 556.508 204.795 556.793 204.785 557.138C204.78 557.478 204.5 557.748 204.16 557.748Z" fill="#D8D5DB"/>
<mask id="mask1" mask-type="alpha" maskUnits="userSpaceOnUse" x="46" y="82" width="365" height="492">
<path fill-rule="evenodd" clip-rule="evenodd" d="M46.75 82.1295H410.438V573.31H46.75V82.1295Z" fill="white"/>
</mask>
<g mask="url(#mask1)">
<path fill-rule="evenodd" clip-rule="evenodd" d="M385.55 494.68C382.75 495.43 379.95 496.88 377.7 499.43C376.4 500.93 374.7 503.73 373.2 506.68C372.85 496.58 372.5 487.98 372.15 482.68C373.1 482.58 373.65 482.58 373.65 482.58C373.65 481.38 373.65 480.18 373.6 478.88C373.35 454.53 370.7 412.18 367.2 369.98C368.45 372.58 369.65 374.98 370.8 377.13C370.85 377.88 370.85 378.63 371 379.43C372.85 389.53 382.1 445.43 384.8 479.13C385.3 485.18 385.55 490.48 385.55 494.68ZM407.8 371.48V371.38C404.9 361.93 395.15 333.78 384.05 305.83L396.35 301.63C396.35 301.63 360.35 237.58 339.3 223.48C339.25 223.43 339.2 223.43 339.15 223.38C331.75 216.48 320.95 211.98 304.8 210.13C304.7 196.78 305.7 174.28 306.85 157.03C315.15 155.13 319.15 145.38 319.7 143.23C320.85 138.83 319.8 135.18 317.65 132.83C318.3 127.38 319.4 116.78 319.1 107.68C318.85 99.3295 317.5 92.2795 313.6 91.4295C313.65 91.2795 313.75 91.1795 313.8 91.0795C315.1 86.9295 312.65 82.3295 312.55 82.1295L310.35 83.3295C310.95 84.3795 312.2 87.6795 311.4 90.2795C307.7 86.1795 296.2 84.5295 283.3 84.7795C265.25 85.0795 244.55 89.2295 238.95 95.7295C235.05 100.23 236.2 102.68 240.25 103.78C239.65 107.98 239.4 111.63 239.3 114.98C238.7 116.53 238.15 118.13 237.6 119.83C236.15 120.83 234.75 122.28 233.7 124.53L236 125.58C236.05 125.48 236.1 125.43 236.15 125.33C235.55 127.88 235 130.48 234.6 133.33C230.1 164.33 222.75 195.18 253.5 195.53C253.45 199.03 253.25 202.43 252.9 205.63C252.65 208.18 252.3 210.58 251.85 212.73C240.15 215.58 231 220.08 224.65 226.13C202.05 244.78 173.5 304.68 173.5 304.68L183.1 309.43C176 323.23 169 337.33 163.75 348.78C139.45 331.98 96.75 300.83 84.15 287.18C84.15 287.13 84.1 287.13 84.05 287.08C84.55 281.83 83.6 273.33 82.2 268.53C82.2 268.43 82.2 268.33 82.15 268.18C82.05 267.93 81.95 267.78 81.9 267.58C81.8 267.28 81.7 266.93 81.6 266.68C81.35 266.03 81.15 265.58 80.95 265.18C77.6 257.78 72.3 254.88 69.15 245.03C67.5 239.78 63.45 241.93 61.9 245.43L50 218.83L46.75 220.28L62.05 254.63C58.45 253.03 55.3 252.08 53.15 252.83C50.2 253.83 46.95 268.68 48.35 273.98C49.75 279.23 64.1 296.13 69.45 299.03C69.85 299.23 70.3 299.38 70.7 299.43C79.35 311.53 136.7 379.63 159.75 391.43C174.05 398.68 184.8 392.43 188.35 383.13C192.95 375.73 201.4 361.28 210.6 344.58C207.6 391.08 201.85 443.48 191 480.23C192 480.38 193.05 480.53 194.1 480.68C191.05 495.93 188.8 515.98 187.2 536.33C198.5 541.13 210 545.48 221.6 549.38C273.35 566.88 327.05 575.63 373.75 572.78C374.5 570.48 374.85 568.079 374.8 565.53C374.55 555.53 374.25 543.28 373.95 531.18C376.45 537.68 379.7 543.03 382.3 544.38C385.05 545.78 398.05 537.83 400.9 533.08C403.7 528.48 405.85 506.38 404.2 500.48C404.1 500.08 403.8 499.78 403.6 499.43C404.2 496.13 405.1 488.93 406.1 479.53C409.3 447.829 413.1 390.88 407.8 371.48Z" fill="#D1CDD3"/>
</g>
<path fill-rule="evenodd" clip-rule="evenodd" d="M280.106 275.571L247.511 254.301C247.511 254.301 215.116 313.916 199.141 348.796C174.856 331.981 132.156 300.846 119.551 287.166C119.516 287.131 119.481 287.111 119.446 287.076C119.941 281.816 118.991 273.341 117.606 268.536C117.576 268.411 117.571 268.311 117.526 268.176C117.456 267.951 117.361 267.771 117.286 267.556C117.186 267.276 117.096 266.921 116.996 266.681C116.731 266.036 116.526 265.566 116.341 265.161C112.991 257.806 107.681 254.866 104.551 245.046C102.371 238.191 96.0861 243.941 96.7061 248.886C96.7061 248.886 97.6411 252.096 98.6961 255.186C94.5411 253.206 90.9511 252.006 88.5311 252.821C85.6011 253.806 82.3261 268.676 83.7311 273.991C85.1111 279.221 99.4811 296.131 104.861 299.041C105.251 299.251 105.661 299.366 106.081 299.431C114.756 311.546 172.106 379.651 195.161 391.411C209.441 398.696 220.166 392.421 223.751 383.141C234.651 365.446 267.636 307.856 280.106 275.571Z" fill="#FFAD69"/>
<path fill-rule="evenodd" clip-rule="evenodd" d="M284.542 238.945C289.482 263.795 269.622 334.51 269.622 334.51L208.872 304.695C208.872 304.695 271.512 173.39 284.542 238.945Z" fill="#EA3939"/>
<path fill-rule="evenodd" clip-rule="evenodd" d="M410.201 565.529C410.201 566.329 410.201 567.129 410.101 567.929C398.651 570.429 386.451 572.079 373.751 572.779C327.051 575.629 273.351 566.879 221.601 549.379C223.401 522.679 226.201 494.829 230.501 476.029L373.601 478.879L384.801 479.129L406.101 479.529L407.351 479.579C408.351 490.979 409.551 537.129 410.201 565.529Z" fill="#232323"/>
<path fill-rule="evenodd" clip-rule="evenodd" d="M328.468 209.297C367.738 210.592 381.013 223.847 387.783 246.772C395.468 272.802 409.008 430.022 409.008 482.557C409.008 482.557 291.488 490.882 226.383 480.212C246.793 411.262 249.003 287.277 249.413 250.342C249.718 222.627 278.683 207.652 328.468 209.297Z" fill="#FF4E4A"/>
<path fill-rule="evenodd" clip-rule="evenodd" d="M293.873 145.007C290.003 142.097 269.823 144.737 275.638 103.652C277.753 88.662 291.833 98.667 301.798 100.667C311.763 102.667 305.428 145.747 305.428 145.747L293.873 145.007Z" fill="#232323"/>
<path fill-rule="evenodd" clip-rule="evenodd" d="M344.117 135.166C342.442 146.056 339.092 204.976 340.487 218.656C341.882 232.341 275.702 236.251 284.357 221.171C293.017 206.091 286.872 156.106 286.872 156.106L344.117 135.166Z" fill="#FFAD69"/>
<path fill-rule="evenodd" clip-rule="evenodd" d="M339.534 136.831L286.879 156.111C286.879 156.111 290.434 185.226 288.289 205.721C328.439 202.616 338.744 151.906 339.424 142.141C339.534 140.301 339.589 138.526 339.534 136.831Z" fill="#D88344"/>
<path fill-rule="evenodd" clip-rule="evenodd" d="M269.974 133.313C265.094 166.948 256.809 200.483 297.579 194.963C338.354 189.443 344.689 137.168 344.569 127.308C343.934 74.6925 279.569 67.1725 269.974 133.313Z" fill="#FFAD69"/>
<path fill-rule="evenodd" clip-rule="evenodd" d="M348.965 91.4105C349.015 91.2805 349.125 91.1905 349.17 91.0605C350.495 86.9355 348.055 82.3405 347.95 82.1455L345.75 83.3305C345.77 83.3705 347.77 87.1755 346.79 90.2705C337.86 80.4055 283.915 84.6105 274.32 95.7555C262.13 109.916 299.62 103.531 320.745 99.9555C323.705 112.326 337.115 132.811 340.98 135.721L352.535 136.466C352.535 136.466 358.84 93.5805 348.965 91.4105Z" fill="#232323"/>
<path fill-rule="evenodd" clip-rule="evenodd" d="M438.988 499.414C441.578 485.024 450.108 396.629 443.203 371.499C443.193 371.459 443.198 371.419 443.188 371.374C438.368 355.644 414.433 287.839 397.103 255.734L359.758 266.694C359.758 266.694 391.013 348.264 406.168 377.114C406.213 377.889 406.213 378.649 406.363 379.449C408.593 391.349 421.053 466.854 420.913 494.664C418.153 495.434 415.343 496.884 413.108 499.434C410.263 502.684 405.303 512.018 405.653 516.159C406.648 527.974 413.213 542.049 417.708 544.374C420.458 545.794 433.418 537.809 436.263 533.104C439.063 528.474 441.223 506.389 439.573 500.499C439.463 500.094 439.193 499.769 438.988 499.414Z" fill="#FFAD69"/>
<path fill-rule="evenodd" clip-rule="evenodd" d="M374.689 223.486C395.754 237.566 431.714 301.611 431.714 301.611L367.679 323.486C367.679 323.486 319.119 186.346 374.689 223.486Z" fill="#FF4E4A"/>
<path fill-rule="evenodd" clip-rule="evenodd" d="M304.307 131.647C304.437 133.287 303.552 134.692 302.322 134.792C301.092 134.887 299.992 133.642 299.862 132.002C299.727 130.367 300.617 128.957 301.847 128.862C303.072 128.762 304.172 130.007 304.307 131.647Z" fill="#232323"/>
<path fill-rule="evenodd" clip-rule="evenodd" d="M278.336 132.336C278.466 133.976 277.581 135.381 276.351 135.481C275.126 135.576 274.021 134.331 273.891 132.696C273.756 131.056 274.646 129.646 275.876 129.551C277.101 129.451 278.206 130.696 278.336 132.336Z" fill="#232323"/>
<path fill-rule="evenodd" clip-rule="evenodd" d="M310.694 122.446C307.219 117.111 301.239 118.381 301.179 118.391L300.629 115.951C300.944 115.886 308.374 114.311 312.789 121.081L310.694 122.446Z" fill="#232323"/>
<path fill-rule="evenodd" clip-rule="evenodd" d="M271.38 125.561L269.11 124.521C272.48 117.166 280.055 117.641 280.375 117.656L280.2 120.151C279.965 120.136 274.02 119.821 271.38 125.561Z" fill="#232323"/>
<path fill-rule="evenodd" clip-rule="evenodd" d="M295.96 162.617C294.3 162.617 293.25 162.432 293.21 162.422L293.665 159.967C294.125 160.052 305.1 161.912 311.215 151.737L313.355 153.027C308.31 161.417 300.185 162.617 295.96 162.617Z" fill="#232323"/>
<path fill-rule="evenodd" clip-rule="evenodd" d="M276.739 151.222L283.099 129.542L285.494 130.242L280.089 148.677L288.844 148.562L288.879 151.062L276.739 151.222Z" fill="#D88344"/>
<path fill-rule="evenodd" clip-rule="evenodd" d="M114.762 284.682L111.492 286.142L82.1416 220.287L85.4066 218.827L114.762 284.682Z" fill="#232323"/>
<path fill-rule="evenodd" clip-rule="evenodd" d="M334.229 139.446C330.544 147.746 325.934 155.776 337.499 157.266C349.064 158.761 354.444 145.776 355.099 143.231C358.594 129.661 341.469 123.126 334.229 139.446Z" fill="#FFAD69"/>
<path fill-rule="evenodd" clip-rule="evenodd" d="M161.226 0.00201416H43.5715C39.4715 0.00201416 36.1465 3.32201 36.1465 7.42201V49.317C36.1465 53.417 39.4715 56.742 43.5715 56.742H50.7365L58.8165 67.537C60.6115 69.937 64.3765 69.222 65.1715 66.332L67.7915 56.742H161.226C165.326 56.742 168.646 53.417 168.646 49.317V7.42201C168.646 3.32201 165.326 0.00201416 161.226 0.00201416Z" fill="#4D8DFF"/>
<mask id="mask2" mask-type="alpha" maskUnits="userSpaceOnUse" x="0" y="0" width="520" height="574">
<path fill-rule="evenodd" clip-rule="evenodd" d="M0 573.31H519.785V0H0V573.31Z" fill="white"/>
</mask>
<g mask="url(#mask2)">
<path fill-rule="evenodd" clip-rule="evenodd" d="M47.7051 13.495H151.73V10.995H47.7051V13.495Z" fill="white"/>
<path fill-rule="evenodd" clip-rule="evenodd" d="M47.7051 25.325H116.395V22.825H47.7051V25.325Z" fill="white"/>
<path fill-rule="evenodd" clip-rule="evenodd" d="M47.7051 37.155H133.565V34.655H47.7051V37.155Z" fill="white"/>
<path fill-rule="evenodd" clip-rule="evenodd" d="M133.565 140.193H43.5704C39.4704 140.193 36.1504 143.518 36.1504 147.613V189.508C36.1504 193.608 39.4704 196.933 43.5704 196.933H50.7354L58.8154 207.728C60.6104 210.128 64.3804 209.413 65.1704 206.523L67.7904 196.933H133.565C137.665 196.933 140.985 193.608 140.985 189.508V147.613C140.985 143.518 137.665 140.193 133.565 140.193Z" fill="#FF4E4A"/>
<path fill-rule="evenodd" clip-rule="evenodd" d="M47.7051 153.685H95.5901V151.185H47.7051V153.685Z" fill="white"/>
<path fill-rule="evenodd" clip-rule="evenodd" d="M105.5 153.685H122.01V151.185H105.5V153.685Z" fill="white"/>
<path fill-rule="evenodd" clip-rule="evenodd" d="M47.7051 165.515H81.7201V163.015H47.7051V165.515Z" fill="white"/>
<path fill-rule="evenodd" clip-rule="evenodd" d="M47.7051 177.345H113.42V174.845H47.7051V177.345Z" fill="white"/>
<path fill-rule="evenodd" clip-rule="evenodd" d="M103.429 70.058H212.999C217.094 70.058 220.414 73.383 220.414 77.478V119.378C220.414 123.473 217.094 126.798 212.999 126.798H205.829L197.749 137.598C195.954 139.993 192.184 139.278 191.399 136.388L188.774 126.798H103.429C99.3285 126.798 96.0085 123.473 96.0085 119.378V77.478C96.0085 73.383 99.3285 70.058 103.429 70.058Z" fill="#FFC84D"/>
<path fill-rule="evenodd" clip-rule="evenodd" d="M164.94 83.55H208.86V81.05H164.94V83.55Z" fill="white"/>
<path fill-rule="evenodd" clip-rule="evenodd" d="M113.425 95.385H208.86V92.885H113.425V95.385Z" fill="white"/>
<path fill-rule="evenodd" clip-rule="evenodd" d="M161.97 107.215H208.86V104.715H161.97V107.215Z" fill="white"/>
<path fill-rule="evenodd" clip-rule="evenodd" d="M132.575 107.215H154.04V104.715H132.575V107.215Z" fill="white"/>
<path fill-rule="evenodd" clip-rule="evenodd" d="M293.439 276.82C274.324 276.82 258.769 292.375 258.769 311.49C258.769 330.61 274.324 346.165 293.439 346.165C312.559 346.165 328.114 330.61 328.114 311.49C328.114 292.375 312.559 276.82 293.439 276.82ZM293.439 348.665C272.944 348.665 256.269 331.99 256.269 311.49C256.269 290.995 272.944 274.32 293.439 274.32C313.939 274.32 330.614 290.995 330.614 311.49C330.614 331.99 313.939 348.665 293.439 348.665Z" fill="white"/>
</g>
</svg>
